# AST/ASF file generated using VICON BodyLanguage
# -----------------------------------------------
:version 1.10
:name VICON
:units
  mass 1.0
  length 0.45
  angle deg
:documentation
   .ast/.asf automatically generated from VICON data using
   VICON BodyBuilder and BodyLanguage model FoxedUp or BRILLIANT.MOD
:root
   order TX TY TZ RX RY RZ
   axis XYZ
   position 0 0 0  
   orientation 0 0 0 
:bonedata
  begin
     id 1 
     name lhipjoint
     direction 0.537252 -0.787203 0.302774 
     length 2.29576 
     axis 0 0 0  XYZ
  end
  begin
     id 2 
     name lfemur
     direction 0.34202 -0.939693 0  
     length 7.31114  
     axis 0 0 20  XYZ
    dof rx ry rz
    limits (-160.0 20.0)
           (-70.0 70.0)
           (-60.0 70.0)
  end
  begin
     id 3 
     name ltibia
     direction 0.34202 -0.939693 0   
     length 8.36008   
     axis 0 0 20   XYZ
    dof rx
    limits (-10.0 170.0)
  end
  begin
     id 4 
     name lfoot
     direction 0.0969116 -0.266263 0.959016   
     length 2.16704   
     axis -90 7.62852e-016 20   XYZ
    dof rx rz
    limits (-45.0 90.0)
           (-70.0 20.0)
  end
  begin
     id 5 
     name ltoes
     direction 1.53563e-011 -4.21779e-011 1   
     length 1.08338   
     axis -90 7.62852e-016 20   XYZ
    dof rx
    limits (-90.0 20.0)
  end
  begin
     id 6 
     name rhipjoint
     direction -0.588228 -0.754791 0.290308   
     length 2.39434  
     axis 0 0 0  XYZ 
  end
  begin
     id 7 
     name rfemur
     direction -0.34202 -0.939693 0   
     length 7.45207   
     axis 0 0 -20   XYZ
    dof rx ry rz
    limits (-160.0 20.0)
           (-70.0 70.0)
           (-70.0 60.0)
  end
  begin
     id 8 
     name rtibia
     direction -0.34202 -0.939693 0   
     length 8.03565   
     axis 0 0 -20   XYZ
    dof rx
    limits (-10.0 170.0)
 end
 begin
     id 9 
     name rfoot
     direction -0.107009 -0.294004 0.949795   
     length 2.11509  
     axis -90 -7.62852e-016 -20   XYZ
    dof rx rz
    limits (-45.0 90.0)
           (-20.0 70.0)
  end
  begin
     id 10 
     name rtoes
     direction -1.53533e-011 -4.22004e-011 1   
     length 1.05493   
     axis -90 -7.62852e-016 -20   XYZ
    dof rx
    limits (-90.0 20.0)
  end
  begin
     id 11 
     name lowerback
     direction -0.0115208 0.997969 -0.0626515   
     length 2.03153   
     axis 0 0 0   XYZ
    dof rx ry rz
    limits (-20.0 45.0)
           (-30.0 30.0)
           (-30.0 30.0)
  end
  begin
     id 12 
     name upperback
     direction -0.00423475 0.999974 -0.00583614   
     length 2.03619   
     axis 0 0 0   XYZ
    dof rx ry rz
    limits (-20.0 45.0)
           (-30.0 30.0)
           (-30.0 30.0)
  end
  begin
     id 13 
     name thorax
     direction 0.00289429 0.999728 0.0231573   
     length 2.03921   
     axis 0 0 0   XYZ
    dof rx ry rz
    limits (-20.0 45.0)
           (-30.0 30.0)
           (-30.0 30.0)
  end
  begin
     id 14 
     name lowerneck
     direction 0.0188995 0.987777 0.154721   
     length 1.78836   
     axis 0 0 0   XYZ
    dof rx ry rz
    limits (-20.0 45.0)
           (-30.0 30.0)
           (-30.0 30.0)
  end
  begin
     id 15 
     name upperneck
     direction -0.00612612 0.992995 -0.118   
     length 1.81789   
     axis 0 0 0   XYZ
    dof rx ry rz
    limits (-20.0 45.0)
           (-30.0 30.0)
           (-30.0 30.0)
  end
  begin
     id 16
     name head
     direction -0.00420226 0.998397 -0.0564482  
     length 1.82234  
     axis 0 0 0   XYZ
    dof rx ry rz
    limits (-20.0 45.0)
           (-30.0 30.0)
           (-30.0 30.0)
  end
  begin
     id 17 
     name lclavicle
     direction 0.916488 0.396539 0.0529676  
     length 3.51732  
     axis 0 0 0   XYZ
    dof ry rz
    limits (-20.0 10.0)
           (0.0 20.0)
  end
  begin
     id 18 
     name lhumerus
     direction 1 -4.4896e-011 8.36962e-028   
     length 5.45077   
     axis 180 -30 -90   XYZ
    dof rx ry rz
    limits (-60.0 90.0)
           (-90.0 90.0)
           (-90.0 90.0)
  end
  begin
     id 19
     name lradius
     direction 1 -4.48962e-011 3.01407e-027   
     length 3.05488   
     axis 180 -30 -90   XYZ
    dof rx
    limits (-10.0 170.0)
  end
  begin
     id 20
     name lwrist
     direction 1 -4.49002e-011 4.72961e-027   
     length 1.52744   
     axis -2.72261e-015 90 90   XYZ
    dof ry
    limits (-180.0 0.0)
 end
  begin
     id 21 
     name lhand
     direction 1 -4.4899e-011 9.45681e-027   
     length 0.638818   
     axis -6.0311e-015 90 90   XYZ
    dof rx rz
    limits (-90.0 90.0)
           (-45.0 45.0)
  end
  begin
     id 22 
     name lfingers
     direction 1 -4.48871e-011 1.88632e-026   
     length 0.515032   
     axis -1.20625e-014 90 90   XYZ
    dof rx
    limits (0.0 90.0)
  end
  begin
     id 23
     name lthumb
     direction 0.707107 -6.34964e-011 0.707107   
     length 0.739485   
     axis -90 45 6.32835e-014   XYZ
    dof rx rz
    limits (-45.0 45.0)
           (-45.0 45.0)
  end
  begin
     id 24 
     name rclavicle
     direction -0.949427 0.303202 0.0815894   
     length 3.76167  
     axis 0 0 0   XYZ 
    dof ry rz
    limits (-10.0 20.0)
           (-20.0 0.0)
  end
  begin
     id 25 
     name rhumerus
     direction -1 -4.48971e-011 -6.43969e-018  
     length 4.88702   
     axis 180 30 90   XYZ
    dof rx ry rz
    limits (-90.0 60.0)
           (-90.0 90.0)
           (-90.0 90.0)
  end
  begin
     id 26 
     name rradius
     direction -1 -4.48987e-011 5.46662e-027   
     length 3.22603   
     axis 180 30 90   XYZ
    dof rx
    limits (-10.0 170.0)
  end
  begin
     id 27 
     name rwrist
     direction -1 -4.48956e-011 4.72476e-027   
     length 1.61302   
     axis -2.72261e-015 -90 -90   XYZ
    dof ry
    limits (-180.0 0.0)
  end
  begin
     id 28
     name rhand
     direction -1 -4.4889e-011 9.43571e-027   
     length 0.716293   
     axis -6.0311e-015 -90 -90   XYZ
    dof rx rz
    limits (-90.0 90.0)
           (-45.0 45.0)
  end
  begin
     id 29
     name rfingers
     direction -1 -4.48887e-011 1.88701e-026   
     length 0.577494   
     axis -1.20625e-014 -90 -90   XYZ
    dof rx
    limits (0.0 90.0)
  end
  begin
     id 30
     name rthumb
     direction -0.707107 -6.34825e-011 0.707107   
     length 0.829169   
     axis -90 -45 -6.32835e-014   XYZ
    dof rx rz
    limits (-45.0 45.0)
           (-45.0 45.0)
  end
:hierarchy
  begin
    root lhipjoint rhipjoint lowerback
    lhipjoint lfemur
    lfemur ltibia
    ltibia lfoot
    lfoot ltoes
    rhipjoint rfemur
    rfemur rtibia
    rtibia rfoot
    rfoot rtoes
    lowerback upperback
    upperback thorax
    thorax lowerneck lclavicle rclavicle
    lowerneck upperneck
    upperneck head
    lclavicle lhumerus
    lhumerus lradius
    lradius lwrist
    lwrist lhand lthumb
    lhand lfingers
    rclavicle rhumerus
    rhumerus rradius
    rradius rwrist
    rwrist rhand rthumb
    rhand rfingers
  end

#!OML:ASF F:\VICON\USERDATA\INSTALL\rory3\rory3.ASF
:FULLY-SPECIFIED
:DEGREES
579
root 1.73988 18.4763 -0.000436572 12.8329 93.6482 2.39015
lowerback -8.97767 -1.27804 0.168383
upperback -3.27788 -1.61487 0.104123
thorax 1.63418 -0.763101 -0.150551
lowerneck -14.2092 -2.91535 -0.810521
upperneck 18.1344 -3.83597 0.606094
head 7.98068 -1.7681 -0.0796068
rclavicle -5.17423e-015 4.96962e-017
rhumerus -30.1485 -6.06888 -86.7578
rradius 39.3706
rwrist -155.472
rhand -22.0582 -6.26415
rfingers 7.12502
rthumb 4.35256 -36.1994
lclavicle -5.17423e-015 4.96962e-017
lhumerus -37.6218 -14.8453 93.2601
lradius 34.1889
lwrist 12.2415
lhand -10.9148 23.5679
lfingers 7.12502
lthumb 15.1025 52.9969
rfemur -2.51655 -14.2752 17.4909
rtibia -3.18055e-015
rfoot -7.06618 0.709501
rtoes -16.1241
lfemur -12.9722 7.94673 -17.657
ltibia 19.3064
lfoot -15.643 -4.97425
ltoes -26.9458
580
root 1.74045 18.4756 0.000578171 13.4049 93.6088 2.93381
lowerback -9.00853 -1.27948 0.203727
upperback -3.28163 -1.61991 0.121736
thorax 1.64678 -0.765511 -0.153395
lowerneck -14.2417 -2.91266 -0.812995
upperneck 18.2185 -3.83593 0.629372
head 8.01505 -1.7645 -0.0726411
rclavicle 1.20245e-014 -2.5842e-015
rhumerus -30.1945 -6.1205 -86.7501
rradius 39.3735
rwrist -155.356
rhand -22.1238 -6.07102
rfingers 7.12502
rthumb 4.2892 -36.0076
lclavicle 1.20245e-014 -2.5842e-015
lhumerus -37.5259 -14.9098 93.2378
lradius 34.2716
lwrist 12.4072
lhand -11.807 21.0343
lfingers 7.12502
lthumb 14.243 50.5259
rfemur -2.55703 -14.2291 17.5341
rtibia 1.27222e-014
rfoot -7.10734 0.714803
rtoes -16.2226
lfemur -13.0179 7.98662 -17.6247
ltibia 19.3282
lfoot -15.6448 -5.01777
ltoes -26.7253
581
root 1.74062 18.4743 0.00171499 13.8999 93.5446 3.41875
lowerback -9.02327 -1.27697 0.204381
upperback -3.27244 -1.61797 0.163655
thorax 1.66562 -0.764445 -0.11083
lowerneck -14.2949 -2.89526 -0.806959
upperneck 18.273 -3.8078 0.602879
head 8.04181 -1.75254 -0.0805361
rclavicle -8.51241e-015 -3.27995e-015
rhumerus -30.2231 -6.24207 -86.6674
rradius 39.363
rwrist -155.172
rhand -22.1974 -6.03484
rfingers 7.12502
rthumb 4.21812 -35.9728
lclavicle -8.51241e-015 -3.27995e-015
lhumerus -37.4704 -14.9513 93.2493
lradius 34.436
lwrist 12.484
lhand -11.5647 24.8689
lfingers 7.12502
lthumb 14.4765 54.3439
rfemur -2.58113 -14.1584 17.566
rtibia 1.43125e-014
rfoot -7.11804 0.703673
rtoes -16.3903
lfemur -13.0365 8.04984 -17.607
ltibia 19.3545
lfoot -15.6913 -4.9822
ltoes -26.8935
582
root 1.74049 18.4746 0.00139232 15.8331 93.4831 5.33347
lowerback -9.01792 -1.27271 0.322813
upperback -3.29146 -1.62332 0.230612
thorax 1.64157 -0.767126 -0.108424
lowerneck -14.2948 -2.86072 -0.840948
upperneck 18.3017 -3.75431 0.613725
head 8.05193 -1.72798 -0.0656285
rclavicle 1.81081e-014 -1.25731e-014
rhumerus -30.2582 -6.3778 -86.5386
rradius 39.2536
rwrist -155.153
rhand -22.1725 -6.33096
rfingers 7.12502
rthumb 4.24215 -36.2685
lclavicle 1.81081e-014 -1.25731e-014
lhumerus -37.4757 -14.8683 93.2452
lradius 34.6427
lwrist 12.5831
lhand -10.5086 27.2528
lfingers 7.12502
lthumb 15.4938 56.6519
rfemur -2.62482 -14.0678 17.687
rtibia -7.15625e-015
rfoot -7.09113 0.692203
rtoes -16.2636
lfemur -13.0524 8.06656 -17.4943
ltibia 19.3644
lfoot -15.7215 -4.91123
ltoes -26.8244
583
root 1.74049 18.4748 0.000435077 16.4647 93.4401 5.98447
lowerback -8.98054 -1.25748 0.394562
upperback -3.29812 -1.60936 0.240336
thorax 1.61241 -0.760559 -0.136294
lowerneck -14.2886 -2.84589 -0.797117
upperneck 18.3402 -3.73666 0.580738
head 8.06193 -1.71919 -0.0819374
rclavicle 2.546e-014 5.66536e-015
rhumerus -30.3272 -6.66956 -86.3666
rradius 39.1946
rwrist -155.261
rhand -22.4281 -6.70174
rfingers 7.12502
rthumb 3.99542 -36.644
lclavicle 2.546e-014 5.66536e-015
lhumerus -37.4654 -14.9144 93.2281
lradius 34.7975
lwrist 12.6064
lhand -9.48117 27.977
lfingers 7.12502
lthumb 16.4832 57.2968
rfemur -2.61183 -14.0144 17.7122
rtibia 0
rfoot -7.07266 0.688412
rtoes -16.5474
lfemur -13.0333 8.07985 -17.4568
ltibia 19.3784
lfoot -15.7591 -4.89082
ltoes -26.7486
584
root 1.74003 18.4734 -0.00117579 15.8694 93.36 5.40144
lowerback -8.96328 -1.2591 0.365047
upperback -3.29402 -1.60976 0.259272
thorax 1.60853 -0.760732 -0.0999355
lowerneck -14.2972 -2.82824 -0.787251
upperneck 18.4002 -3.70692 0.546464
head 8.08236 -1.70687 -0.0921534
rclavicle 2.9345e-015 -4.17448e-015
rhumerus -30.3599 -6.85686 -86.236
rradius 39.1756
rwrist -155.28
rhand -22.7154 -6.77886
rfingers 7.12502
rthumb 3.71798 -36.7262
lclavicle 2.9345e-015 -4.17448e-015
lhumerus -37.3846 -14.8443 93.2054
lradius 34.8709
lwrist 12.5986
lhand -9.48123 27.6316
lfingers 7.12502
lthumb 16.4832 56.9514
rfemur -2.61371 -13.947 17.6504
rtibia 9.54166e-015
rfoot -7.10921 0.666805
rtoes -16.9095
lfemur -13.0131 8.1369 -17.5224
ltibia 19.388
lfoot -15.8137 -4.85702
ltoes -27.0384
585
root 1.73822 18.4721 -0.00332558 16.796 93.2715 6.32892
lowerback -8.94134 -1.22486 0.424714
upperback -3.29377 -1.57026 0.295134
thorax 1.59621 -0.741255 -0.0919778
lowerneck -14.2692 -2.83706 -0.807891
upperneck 18.4052 -3.7103 0.528715
head 8.07911 -1.71161 -0.0946106
rclavicle 2.67566e-015 4.30182e-015
rhumerus -30.3884 -6.8895 -86.1867
rradius 39.1779
rwrist -155.185
rhand -22.7705 -6.60983
rfingers 7.12502
rthumb 3.66472 -36.5581
lclavicle 2.67566e-015 4.30182e-015
lhumerus -37.3329 -14.8537 93.2362
lradius 35.0541
lwrist 12.7207
lhand -9.41644 27.749
lfingers 7.12502
lthumb 16.5455 57.0636
rfemur -2.64741 -13.8463 17.6839
rtibia 1.59028e-014
rfoot -7.11241 0.671972
rtoes -16.8697
lfemur -13.006 8.15412 -17.4996
ltibia 19.3879
lfoot -15.8694 -4.7332
ltoes -27.353
586
root 1.73692 18.4726 -0.00362343 16.393 93.2098 5.93903
lowerback -8.89964 -1.23734 0.379379
upperback -3.29485 -1.5838 0.322728
thorax 1.57414 -0.747922 -0.0385478
lowerneck -14.2156 -2.81423 -0.803776
upperneck 18.3917 -3.67781 0.52083
head 8.06455 -1.69685 -0.0933321
rclavicle -3.19247e-014 7.10655e-015
rhumerus -30.4212 -6.88366 -86.1333
rradius 39.1495
rwrist -155.104
rhand -22.6696 -6.6668
rfingers 7.12502
rthumb 3.76213 -36.6133
lclavicle -3.19247e-014 7.10655e-015
lhumerus -37.2576 -14.7072 93.1731
lradius 35.2357
lwrist 12.7541
lhand -8.96306 28.3279
lfingers 7.12502
lthumb 16.982 57.6055
rfemur -2.65061 -13.7933 17.6397
rtibia -7.95139e-015
rfoot -7.08143 0.664238
rtoes -16.9356
lfemur -12.9774 8.07343 -17.5278
ltibia 19.3808
lfoot -15.8335 -4.66852
ltoes -26.9897
